<mxfile host="Electron" modified="2024-07-09T15:15:45.714Z" agent="Mozilla/5.0 (Windows NT 10.0; Win64; x64) AppleWebKit/537.36 (KHTML, like Gecko) draw.io/22.1.11 Chrome/114.0.5735.289 Electron/25.9.8 Safari/537.36" etag="3fRRjrbnoZVpvHMwWRTm" version="22.1.11" type="device">
  <diagram name="第 1 页" id="qF9Pe5ZfOmrh4KtvXhby">
    <mxGraphModel dx="934" dy="561" grid="1" gridSize="10" guides="1" tooltips="1" connect="1" arrows="1" fold="1" page="1" pageScale="1" pageWidth="827" pageHeight="1169" math="0" shadow="0">
      <root>
        <mxCell id="0" />
        <mxCell id="1" parent="0" />
        <mxCell id="4h4XhRXMx6jd6g4_2pdP-42" value="" style="rounded=0;whiteSpace=wrap;html=1;hachureGap=4;fontFamily=Architects Daughter;fontSource=https%3A%2F%2Ffonts.googleapis.com%2Fcss%3Ffamily%3DArchitects%2BDaughter;fontSize=20;dashed=1;dashPattern=12 12;" vertex="1" parent="1">
          <mxGeometry x="1030" y="80" width="260" height="350" as="geometry" />
        </mxCell>
        <mxCell id="4h4XhRXMx6jd6g4_2pdP-27" value="" style="rounded=0;whiteSpace=wrap;html=1;hachureGap=4;fontFamily=Architects Daughter;fontSource=https%3A%2F%2Ffonts.googleapis.com%2Fcss%3Ffamily%3DArchitects%2BDaughter;fontSize=20;labelBackgroundColor=none;dashed=1;dashPattern=12 12;" vertex="1" parent="1">
          <mxGeometry x="420" y="153" width="460" height="177" as="geometry" />
        </mxCell>
        <mxCell id="4h4XhRXMx6jd6g4_2pdP-10" value="" style="rounded=0;whiteSpace=wrap;html=1;hachureGap=4;fontFamily=Architects Daughter;fontSource=https%3A%2F%2Ffonts.googleapis.com%2Fcss%3Ffamily%3DArchitects%2BDaughter;fontSize=20;dashed=1;labelBackgroundColor=none;" vertex="1" parent="1">
          <mxGeometry x="70" y="100" width="170" height="300" as="geometry" />
        </mxCell>
        <mxCell id="4h4XhRXMx6jd6g4_2pdP-3" value="List" style="rounded=0;whiteSpace=wrap;html=1;hachureGap=4;fontFamily=Georgia;fontSize=20;labelBackgroundColor=none;fillColor=#CC99FF;" vertex="1" parent="1">
          <mxGeometry x="110" y="120" width="100" height="40" as="geometry" />
        </mxCell>
        <mxCell id="4h4XhRXMx6jd6g4_2pdP-6" value="Array" style="rounded=0;whiteSpace=wrap;html=1;hachureGap=4;fontFamily=Georgia;fontSize=20;labelBackgroundColor=none;fillColor=#CC99FF;" vertex="1" parent="1">
          <mxGeometry x="110" y="180" width="100" height="40" as="geometry" />
        </mxCell>
        <mxCell id="4h4XhRXMx6jd6g4_2pdP-7" value="File" style="rounded=0;whiteSpace=wrap;html=1;hachureGap=4;fontFamily=Georgia;fontSize=20;labelBackgroundColor=none;fillColor=#CC99FF;" vertex="1" parent="1">
          <mxGeometry x="110" y="230" width="100" height="40" as="geometry" />
        </mxCell>
        <mxCell id="4h4XhRXMx6jd6g4_2pdP-8" value="IO" style="rounded=0;whiteSpace=wrap;html=1;hachureGap=4;fontFamily=Georgia;fontSize=20;labelBackgroundColor=none;fillColor=#CC99FF;" vertex="1" parent="1">
          <mxGeometry x="110" y="280" width="100" height="40" as="geometry" />
        </mxCell>
        <mxCell id="4h4XhRXMx6jd6g4_2pdP-9" value="。。。" style="rounded=0;whiteSpace=wrap;html=1;hachureGap=4;fontFamily=Georgia;fontSize=20;align=center;labelBackgroundColor=none;fillColor=#CC99FF;" vertex="1" parent="1">
          <mxGeometry x="110" y="340" width="100" height="40" as="geometry" />
        </mxCell>
        <mxCell id="4h4XhRXMx6jd6g4_2pdP-11" value="Stream" style="rounded=0;whiteSpace=wrap;html=1;hachureGap=4;fontFamily=Georgia;fontSize=20;labelBackgroundColor=none;fillColor=#f0a30a;fontColor=#000000;strokeColor=#BD7000;" vertex="1" parent="1">
          <mxGeometry x="300" y="220" width="90" height="50" as="geometry" />
        </mxCell>
        <mxCell id="4h4XhRXMx6jd6g4_2pdP-12" value="" style="shape=flexArrow;endArrow=classic;html=1;rounded=0;hachureGap=4;fontFamily=Architects Daughter;fontSource=https%3A%2F%2Ffonts.googleapis.com%2Fcss%3Ffamily%3DArchitects%2BDaughter;fontSize=16;labelBackgroundColor=none;fontColor=default;fillColor=#f0a30a;strokeColor=#BD7000;" edge="1" parent="1">
          <mxGeometry width="50" height="50" relative="1" as="geometry">
            <mxPoint x="220" y="244.5" as="sourcePoint" />
            <mxPoint x="300" y="244.5" as="targetPoint" />
          </mxGeometry>
        </mxCell>
        <mxCell id="4h4XhRXMx6jd6g4_2pdP-14" value="创建流" style="text;html=1;strokeColor=none;fillColor=none;align=center;verticalAlign=middle;whiteSpace=wrap;rounded=0;fontSize=20;fontFamily=Architects Daughter;labelBackgroundColor=none;" vertex="1" parent="1">
          <mxGeometry x="95" y="40" width="130" height="40" as="geometry" />
        </mxCell>
        <mxCell id="4h4XhRXMx6jd6g4_2pdP-15" value="source" style="text;html=1;strokeColor=none;fillColor=none;align=center;verticalAlign=middle;whiteSpace=wrap;rounded=0;fontSize=20;fontFamily=Georgia;labelBackgroundColor=none;" vertex="1" parent="1">
          <mxGeometry x="95" y="410" width="130" height="40" as="geometry" />
        </mxCell>
        <mxCell id="4h4XhRXMx6jd6g4_2pdP-16" value="Filter" style="rounded=0;whiteSpace=wrap;html=1;hachureGap=4;fontFamily=Georgia;fontSize=15;labelBackgroundColor=none;fillColor=#3399FF;" vertex="1" parent="1">
          <mxGeometry x="450" y="212.5" width="60" height="65" as="geometry" />
        </mxCell>
        <mxCell id="4h4XhRXMx6jd6g4_2pdP-17" value="Map" style="rounded=0;whiteSpace=wrap;html=1;hachureGap=4;fontFamily=Georgia;fontSize=16;labelBackgroundColor=none;fillColor=#3399FF;" vertex="1" parent="1">
          <mxGeometry x="570" y="212.5" width="60" height="65" as="geometry" />
        </mxCell>
        <mxCell id="4h4XhRXMx6jd6g4_2pdP-18" value="Sort" style="rounded=0;whiteSpace=wrap;html=1;hachureGap=4;fontFamily=Georgia;fontSize=16;labelBackgroundColor=none;fillColor=#3399FF;" vertex="1" parent="1">
          <mxGeometry x="690" y="212.5" width="60" height="65" as="geometry" />
        </mxCell>
        <mxCell id="4h4XhRXMx6jd6g4_2pdP-20" value="..." style="rounded=0;whiteSpace=wrap;html=1;hachureGap=4;fontFamily=Georgia;fontSize=16;labelBackgroundColor=none;fillColor=#3399FF;" vertex="1" parent="1">
          <mxGeometry x="800" y="215" width="60" height="65" as="geometry" />
        </mxCell>
        <mxCell id="4h4XhRXMx6jd6g4_2pdP-21" value="" style="shape=flexArrow;endArrow=classic;html=1;rounded=0;hachureGap=4;fontFamily=Architects Daughter;fontSource=https%3A%2F%2Ffonts.googleapis.com%2Fcss%3Ffamily%3DArchitects%2BDaughter;fontSize=16;entryX=0;entryY=0.5;entryDx=0;entryDy=0;labelBackgroundColor=none;fontColor=default;fillColor=#f0a30a;strokeColor=#BD7000;" edge="1" parent="1" target="4h4XhRXMx6jd6g4_2pdP-16">
          <mxGeometry width="50" height="50" relative="1" as="geometry">
            <mxPoint x="390" y="244.5" as="sourcePoint" />
            <mxPoint x="430" y="244.5" as="targetPoint" />
          </mxGeometry>
        </mxCell>
        <mxCell id="4h4XhRXMx6jd6g4_2pdP-23" value="" style="shape=flexArrow;endArrow=classic;html=1;rounded=0;hachureGap=4;fontFamily=Architects Daughter;fontSource=https%3A%2F%2Ffonts.googleapis.com%2Fcss%3Ffamily%3DArchitects%2BDaughter;fontSize=16;labelBackgroundColor=none;fontColor=default;fillColor=#f0a30a;strokeColor=#BD7000;" edge="1" parent="1">
          <mxGeometry width="50" height="50" relative="1" as="geometry">
            <mxPoint x="510" y="244.5" as="sourcePoint" />
            <mxPoint x="556" y="244.5" as="targetPoint" />
          </mxGeometry>
        </mxCell>
        <mxCell id="4h4XhRXMx6jd6g4_2pdP-25" value="" style="shape=flexArrow;endArrow=classic;html=1;rounded=0;hachureGap=4;fontFamily=Architects Daughter;fontSource=https%3A%2F%2Ffonts.googleapis.com%2Fcss%3Ffamily%3DArchitects%2BDaughter;fontSize=16;labelBackgroundColor=none;fontColor=default;fillColor=#f0a30a;strokeColor=#BD7000;" edge="1" parent="1">
          <mxGeometry width="50" height="50" relative="1" as="geometry">
            <mxPoint x="630" y="244.5" as="sourcePoint" />
            <mxPoint x="676" y="244.5" as="targetPoint" />
          </mxGeometry>
        </mxCell>
        <mxCell id="4h4XhRXMx6jd6g4_2pdP-26" value="" style="shape=flexArrow;endArrow=classic;html=1;rounded=0;hachureGap=4;fontFamily=Architects Daughter;fontSource=https%3A%2F%2Ffonts.googleapis.com%2Fcss%3Ffamily%3DArchitects%2BDaughter;fontSize=16;labelBackgroundColor=none;fontColor=default;fillColor=#f0a30a;strokeColor=#BD7000;" edge="1" parent="1">
          <mxGeometry width="50" height="50" relative="1" as="geometry">
            <mxPoint x="750" y="244.5" as="sourcePoint" />
            <mxPoint x="796" y="244.5" as="targetPoint" />
          </mxGeometry>
        </mxCell>
        <mxCell id="4h4XhRXMx6jd6g4_2pdP-28" value="中间操作" style="text;html=1;strokeColor=none;fillColor=none;align=center;verticalAlign=middle;whiteSpace=wrap;rounded=0;fontSize=20;fontFamily=Architects Daughter;" vertex="1" parent="1">
          <mxGeometry x="560" y="103" width="190" height="50" as="geometry" />
        </mxCell>
        <mxCell id="4h4XhRXMx6jd6g4_2pdP-29" value="每次操作都会返回一个新的Stream流" style="text;html=1;strokeColor=none;fillColor=none;align=center;verticalAlign=middle;whiteSpace=wrap;rounded=0;fontSize=20;fontFamily=Architects Daughter;" vertex="1" parent="1">
          <mxGeometry x="470" y="335" width="370" height="50" as="geometry" />
        </mxCell>
        <mxCell id="4h4XhRXMx6jd6g4_2pdP-30" value="注意：中间操作都是惰性执行的，也就意味着不会立即执行，当遇到终端操作才会执行" style="text;html=1;strokeColor=none;fillColor=none;align=center;verticalAlign=middle;whiteSpace=wrap;rounded=0;fontSize=20;fontFamily=Architects Daughter;" vertex="1" parent="1">
          <mxGeometry x="420" y="385" width="400" height="80" as="geometry" />
        </mxCell>
        <mxCell id="4h4XhRXMx6jd6g4_2pdP-31" value="Stream" style="rounded=0;whiteSpace=wrap;html=1;hachureGap=4;fontFamily=Georgia;fontSize=20;labelBackgroundColor=none;fillColor=#f0a30a;fontColor=#000000;strokeColor=#BD7000;" vertex="1" parent="1">
          <mxGeometry x="920" y="225" width="90" height="50" as="geometry" />
        </mxCell>
        <mxCell id="4h4XhRXMx6jd6g4_2pdP-33" value="" style="shape=flexArrow;endArrow=classic;html=1;rounded=0;hachureGap=4;fontFamily=Architects Daughter;fontSource=https%3A%2F%2Ffonts.googleapis.com%2Fcss%3Ffamily%3DArchitects%2BDaughter;fontSize=16;labelBackgroundColor=none;fontColor=default;fillColor=#f0a30a;strokeColor=#BD7000;" edge="1" parent="1">
          <mxGeometry width="50" height="50" relative="1" as="geometry">
            <mxPoint x="870" y="249.5" as="sourcePoint" />
            <mxPoint x="916" y="249.5" as="targetPoint" />
          </mxGeometry>
        </mxCell>
        <mxCell id="4h4XhRXMx6jd6g4_2pdP-34" value="Collect" style="rounded=0;whiteSpace=wrap;html=1;hachureGap=4;fontFamily=Georgia;fontSize=20;fillColor=#99FF99;" vertex="1" parent="1">
          <mxGeometry x="1060" y="120" width="90" height="40" as="geometry" />
        </mxCell>
        <mxCell id="4h4XhRXMx6jd6g4_2pdP-35" value="Reduce" style="rounded=0;whiteSpace=wrap;html=1;hachureGap=4;fontFamily=Georgia;fontSize=20;fillColor=#99FF99;" vertex="1" parent="1">
          <mxGeometry x="1060" y="172.5" width="90" height="40" as="geometry" />
        </mxCell>
        <mxCell id="4h4XhRXMx6jd6g4_2pdP-36" value="Count" style="rounded=0;whiteSpace=wrap;html=1;hachureGap=4;fontFamily=Georgia;fontSize=20;fillColor=#99FF99;" vertex="1" parent="1">
          <mxGeometry x="1060" y="225" width="90" height="35" as="geometry" />
        </mxCell>
        <mxCell id="4h4XhRXMx6jd6g4_2pdP-37" value="Match" style="rounded=0;whiteSpace=wrap;html=1;hachureGap=4;fontFamily=Georgia;fontSize=20;fillColor=#99FF99;" vertex="1" parent="1">
          <mxGeometry x="1060" y="270" width="90" height="32.5" as="geometry" />
        </mxCell>
        <mxCell id="4h4XhRXMx6jd6g4_2pdP-38" value="。。。" style="rounded=0;whiteSpace=wrap;html=1;hachureGap=4;fontFamily=Georgia;fontSize=20;fillColor=#99FF99;" vertex="1" parent="1">
          <mxGeometry x="1060" y="320" width="90" height="30" as="geometry" />
        </mxCell>
        <mxCell id="4h4XhRXMx6jd6g4_2pdP-39" value="" style="shape=curlyBracket;whiteSpace=wrap;html=1;rounded=1;flipH=1;labelPosition=right;verticalLabelPosition=middle;align=left;verticalAlign=middle;hachureGap=4;fontFamily=Architects Daughter;fontSource=https%3A%2F%2Ffonts.googleapis.com%2Fcss%3Ffamily%3DArchitects%2BDaughter;fontSize=20;" vertex="1" parent="1">
          <mxGeometry x="1170" y="120" width="20" height="230" as="geometry" />
        </mxCell>
        <mxCell id="4h4XhRXMx6jd6g4_2pdP-40" value="Result" style="ellipse;whiteSpace=wrap;html=1;aspect=fixed;hachureGap=4;fontFamily=Georgia;fontSize=20;fillColor=#99FF99;" vertex="1" parent="1">
          <mxGeometry x="1201" y="197.5" width="80" height="80" as="geometry" />
        </mxCell>
        <mxCell id="4h4XhRXMx6jd6g4_2pdP-41" value="foreach" style="rounded=0;whiteSpace=wrap;html=1;hachureGap=4;fontFamily=Georgia;fontSize=20;fillColor=#99FF99;" vertex="1" parent="1">
          <mxGeometry x="1060" y="370" width="210" height="30" as="geometry" />
        </mxCell>
        <mxCell id="4h4XhRXMx6jd6g4_2pdP-43" value="执行终端操作流就会被消费，就不能再被使用了" style="text;html=1;strokeColor=none;fillColor=none;align=center;verticalAlign=middle;whiteSpace=wrap;rounded=0;fontSize=20;fontFamily=Architects Daughter;" vertex="1" parent="1">
          <mxGeometry x="1030" y="450" width="270" height="60" as="geometry" />
        </mxCell>
        <mxCell id="4h4XhRXMx6jd6g4_2pdP-50" value="" style="shape=flexArrow;endArrow=classic;html=1;rounded=0;hachureGap=4;fontFamily=Architects Daughter;fontSource=https%3A%2F%2Ffonts.googleapis.com%2Fcss%3Ffamily%3DArchitects%2BDaughter;fontSize=16;labelBackgroundColor=none;fontColor=default;fillColor=#f0a30a;strokeColor=#BD7000;" edge="1" parent="1">
          <mxGeometry width="50" height="50" relative="1" as="geometry">
            <mxPoint x="1014" y="254.41" as="sourcePoint" />
            <mxPoint x="1060" y="254.41" as="targetPoint" />
          </mxGeometry>
        </mxCell>
      </root>
    </mxGraphModel>
  </diagram>
</mxfile>
